<svg xmlns="http://www.w3.org/2000/svg" xmlns:xlink="http://www.w3.org/1999/xlink" width="1440" height="576" viewBox="0 0 1440 576">
  <defs>
    <linearGradient id="linear-gradient" x1="1" y1="0.468" x2="0" y2="0.459" gradientUnits="objectBoundingBox">
      <stop offset="0" stop-color="#74f0a7"/>
      <stop offset="1" stop-color="#00a8a5"/>
    </linearGradient>
  </defs>
  <g id="Groupe_8040" data-name="Groupe 8040" transform="translate(0 -195)">
    <path id="Intersection_1" data-name="Intersection 1" d="M5422.391,1203.793c-43.409-1.92-88.75-9.377-135-22.215-95.407-26.484-168.416-67.62-232.83-103.912-83.345-46.961-155.341-87.508-254.647-86.583-104.556.982-232.53,47.872-400.464,147.091v-68.6c162.889-92.716,291.235-136.751,399.9-137.772,115.3-1.054,197.513,45.235,284.543,94.272,64.449,36.313,131.092,73.862,219.49,98.4,46.538,12.916,91.782,19.807,134.476,20.48,39.474.63,76.942-4.057,111.366-13.908,62.826-17.974,114.442-52.7,149.267-100.429,28.153-38.583,43.657-83.6,44.831-130.19q.071-2.823.071-5.645c0-46.274-14.314-92.134-41.57-132.983l48.407-32.007h1.726c33.452,50.45,51.007,107.347,50.992,165.044q0,3.537-.09,7.077c-1.481,58.648-20.909,115.2-56.185,163.546-42.7,58.52-105.291,100.9-181,122.564a430.343,430.343,0,0,1-98.817,15.769Z" transform="translate(-4398.949 -463.293)" stroke="rgba(0,0,0,0)" stroke-miterlimit="10" stroke-width="1" fill="url(#linear-gradient)"/>
    <rect id="Rectangle_869" data-name="Rectangle 869" width="1440" height="576" transform="translate(0 195)" fill="none"/>
  </g>
</svg>
